<?xml version="1.0" standalone="no"?>
<!DOCTYPE svg PUBLIC "-//W3C//DTD SVG 20010904//EN"
 "http://www.w3.org/TR/2001/REC-SVG-20010904/DTD/svg10.dtd">
<svg version="1.0" xmlns="http://www.w3.org/2000/svg"
 width="1014.000000pt" height="1100.000000pt" viewBox="0 0 1014.000000 1100.000000"
 preserveAspectRatio="xMidYMid meet">

<g transform="translate(0.000000,1100.000000) scale(0.100000,-0.100000)"
fill="#000000" stroke="none">
<path d="M7322 10014 c-52 -36 -78 -137 -47 -181 8 -12 98 -66 200 -120 201
-106 192 -97 165 -167 l-9 -25 -158 85 c-87 47 -172 88 -189 91 -45 8 -88 -19
-113 -70 -49 -101 -33 -122 193 -242 102 -54 186 -104 186 -110 0 -24 -22 -75
-33 -75 -6 0 -81 38 -168 85 -159 85 -187 94 -233 74 -28 -13 -76 -96 -76
-132 0 -46 44 -80 224 -176 97 -51 176 -98 176 -105 0 -27 -33 -106 -44 -106
-6 0 -106 32 -221 70 -116 39 -219 69 -229 68 -13 -2 -25 -19 -37 -53 -33 -94
-20 -160 43 -234 63 -73 207 -176 296 -211 17 -7 32 -18 32 -24 0 -10 -920
-2837 -926 -2844 -6 -9 -68 12 -83 27 -22 22 -198 46 -261 36 -25 -4 -179 -9
-342 -11 l-298 -5 0 495 0 496 -120 0 -120 0 0 -495 0 -495 -235 0 -235 0 0
55 c0 52 -4 62 -69 159 -204 303 -292 538 -291 778 1 168 34 298 121 476 l51
102 111 0 112 1 105 84 105 85 98 0 c58 0 97 4 97 10 0 6 -40 10 -101 10
l-101 0 -84 -66 c-46 -36 -84 -63 -84 -60 0 3 38 35 85 71 l84 66 642 -1 c354
0 645 -2 647 -5 3 -3 -238 -5 -536 -5 -355 0 -542 -3 -542 -10 0 -7 188 -10
543 -10 l544 0 23 50 c23 50 24 50 72 50 47 0 48 1 48 30 0 30 -1 30 -53 30
l-54 0 -23 -50 -23 -49 -645 -1 -645 0 -106 -85 -106 -85 -105 0 -105 0 -53
85 -54 85 -172 0 -173 0 -23 50 c-23 48 -25 50 -66 50 -59 0 -74 -8 -74 -39 0
-25 2 -26 48 -23 l48 4 24 -51 c13 -28 28 -52 34 -52 6 -1 36 -1 66 0 l55 2
36 -59 36 -59 -44 -86 c-55 -110 -90 -215 -105 -314 -7 -48 -17 -83 -27 -91
-14 -11 -14 -14 -2 -22 12 -7 12 -11 2 -23 -9 -12 -9 -16 1 -19 11 -4 11 -8 0
-20 -10 -13 -10 -17 0 -20 11 -4 11 -8 0 -20 -10 -13 -10 -17 0 -20 10 -4 10
-8 -1 -21 -9 -11 -10 -17 -2 -17 15 0 14 -27 -1 -33 -10 -4 -10 -6 0 -6 16 -1
16 -28 0 -34 -10 -4 -10 -6 0 -6 16 -1 16 -28 0 -34 -8 -3 -6 -6 5 -6 12 -1
17 -9 17 -28 1 -80 71 -343 150 -559 35 -94 50 -151 50 -185 l0 -49 62 0 c56
0 65 -3 96 -32 32 -32 36 -33 135 -38 l102 -5 0 -50 0 -50 -99 -3 c-94 -3
-101 -4 -133 -32 -30 -27 -41 -30 -98 -30 l-65 0 0 -60 0 -60 108 0 107 0 -40
-23 c-55 -31 -75 -75 -75 -164 0 -42 4 -73 10 -73 6 0 10 33 10 80 0 59 5 88
17 107 33 49 57 53 400 55 258 2 278 3 106 5 l-213 3 0 171 c0 126 3 171 13
174 6 3 277 4 601 3 l590 -3 -40 -26 c-90 -61 -138 -131 -180 -262 l-18 -57
-265 -2 -266 -3 264 -2 c203 -3 262 -6 258 -16 -31 -85 -68 -210 -64 -220 2
-6 34 79 71 189 37 111 79 221 95 245 38 60 93 106 171 143 90 42 176 41 312
-3 54 -17 100 -36 103 -40 25 -41 43 9 505 1426 256 783 468 1426 471 1428 12
8 257 -78 253 -89 -52 -146 -1073 -3294 -1070 -3301 5 -14 -41 -154 547 1650
292 897 535 1637 540 1646 7 14 16 14 81 3 100 -18 251 -17 323 1 88 23 136
60 161 125 45 115 65 96 -197 181 -127 41 -233 79 -236 85 -2 6 1 22 6 36 l10
26 158 -85 c87 -46 172 -87 189 -90 45 -8 88 19 113 70 29 60 27 102 -5 132
-14 13 -104 66 -200 116 -96 51 -174 98 -174 104 0 24 22 75 33 75 6 0 81 -38
168 -85 103 -55 169 -85 189 -85 67 0 138 114 111 178 -13 31 -53 56 -263 167
-135 70 -137 72 -115 132 l12 32 165 -89 c107 -58 176 -89 197 -90 89 -1 154
149 89 208 -29 27 -496 275 -503 268 -8 -8 -26 2 237 -137 129 -68 246 -134
259 -147 19 -19 22 -31 18 -63 -7 -51 -48 -105 -86 -114 -25 -5 -66 13 -258
116 -125 67 -231 124 -235 126 -5 2 -8 0 -8 -5 0 -5 25 -22 55 -38 58 -31 57
-29 34 -91 -11 -29 -14 -28 -68 2 -42 25 -75 34 -55 16 5 -4 113 -63 239 -131
127 -67 240 -131 253 -143 56 -52 -2 -182 -81 -180 -21 0 -95 34 -212 98 -234
126 -275 147 -275 138 0 -5 25 -21 55 -38 30 -16 55 -31 55 -33 0 -19 -25 -82
-32 -82 -5 0 -30 12 -54 26 -25 15 -48 24 -51 20 -8 -8 -23 1 197 -116 265
-140 297 -160 311 -191 12 -31 6 -59 -25 -106 -26 -40 -56 -54 -93 -44 -15 5
-126 61 -246 125 -120 64 -220 116 -222 116 -3 0 -5 -4 -5 -8 0 -4 25 -20 56
-35 52 -26 55 -30 49 -55 -10 -42 -20 -46 -71 -28 -26 9 -52 16 -58 16 -33 0
40 -27 297 -111 328 -106 302 -86 252 -197 -21 -46 -31 -56 -77 -77 -29 -13
-85 -29 -125 -36 -190 -31 -551 61 -770 197 -43 26 -110 80 -150 119 -92 92
-104 126 -73 227 19 63 23 68 43 62 12 -3 144 -46 293 -95 149 -49 275 -89
280 -89 19 0 -15 19 -63 34 l-51 17 15 47 c9 26 19 51 24 56 4 5 28 -3 55 -18
46 -26 77 -35 58 -17 -5 5 -112 64 -239 131 -126 67 -240 132 -252 143 -57 52
1 182 80 180 20 0 97 -35 212 -98 238 -128 275 -147 275 -138 0 5 -25 21 -55
38 -30 16 -55 31 -55 33 0 19 25 82 32 82 5 0 30 -12 54 -26 25 -15 48 -24 51
-20 8 8 26 -2 -234 135 -127 68 -241 132 -252 142 -11 11 -23 30 -27 43 -6 27
16 81 47 115 42 44 54 41 301 -90 267 -143 248 -133 248 -122 0 5 -25 21 -55
36 -30 15 -55 30 -55 34 0 16 21 83 26 83 2 0 27 -12 55 -26 28 -14 53 -23 56
-21 6 7 -34 30 -267 153 -113 59 -215 118 -227 131 -28 27 -29 62 -3 113 22
44 51 63 90 62 14 0 109 -45 211 -100 246 -132 269 -144 269 -134 0 5 -103 64
-228 131 -235 124 -267 135 -310 105z m-3357 -2484 c4 -6 -12 -10 -39 -10 -25
0 -46 5 -46 10 0 6 18 10 39 10 22 0 43 -4 46 -10z m2355 0 c0 -5 -18 -10 -41
-10 -24 0 -38 4 -34 10 3 6 22 10 41 10 19 0 34 -4 34 -10z m-1908 -180 l51
-80 116 0 c79 0 122 4 131 13 8 6 6 2 -4 -10 -18 -21 -27 -23 -132 -23 l-113
0 -39 -72 c-97 -176 -132 -301 -139 -489 -5 -116 -2 -152 17 -240 38 -184 121
-362 271 -586 69 -102 69 -102 69 -173 l0 -70 -90 0 c-89 0 -90 0 -129 35 -34
31 -44 35 -95 35 l-56 0 0 43 c0 27 -17 90 -44 163 -113 307 -154 487 -162
704 -9 238 23 396 122 591 l45 91 -28 47 c-16 25 -36 56 -44 69 -12 19 -22 22
-76 22 -34 0 -64 3 -66 8 -3 4 74 6 170 4 l174 -3 51 -79z m948 -1205 l0 -485
-110 0 -110 0 0 485 0 485 110 0 110 0 0 -485z m-720 -745 l0 -70 -185 0 -185
0 0 35 0 35 53 0 c47 0 59 4 93 35 38 34 40 34 132 35 l92 0 0 -70z"/>
<path d="M4205 8635 c-82 -19 -755 -21 -755 -3 0 9 -3 9 -12 0 -9 -9 -252 -12
-1030 -12 -672 0 -1018 -3 -1018 -10 0 -5 20 -10 45 -10 25 0 45 -2 45 -5 0
-4 -7 -20 -16 -37 -15 -28 -15 -30 0 -25 15 6 16 -116 19 -1391 l2 -1397 3
1398 c1 768 6 1397 10 1397 4 0 14 -6 21 -12 7 -7 4 6 -8 30 l-21 42 1297 0
c1200 -1 1296 -2 1268 -17 -63 -34 -135 -96 -170 -147 -59 -85 -65 -122 -65
-365 0 -236 9 -294 57 -382 32 -60 61 -87 110 -104 35 -12 38 -16 41 -54 l3
-41 1074 0 1074 0 3 41 c3 38 6 42 42 54 109 38 166 168 166 384 0 134 -3 129
54 105 14 -5 17 -4 12 4 -5 9 38 12 175 12 167 0 180 -1 168 -16 -11 -13 -4
-12 29 5 l42 21 0 -44 c0 -25 5 -48 10 -51 7 -4 10 98 10 299 0 197 -4 306
-10 306 -6 0 -10 -90 -10 -250 l0 -250 -42 21 c-24 12 -37 15 -30 8 6 -7 12
-17 12 -21 0 -4 -81 -8 -180 -8 -99 0 -180 4 -180 8 0 4 6 14 13 21 8 9 1 8
-20 -3 -18 -9 -36 -16 -42 -16 -5 0 -11 46 -13 103 -3 86 -7 111 -30 160 -54
114 -196 218 -345 251 -63 14 -175 16 -910 15 -665 -1 -850 -4 -898 -14z m915
-145 c0 -64 -3 -80 -15 -80 -12 0 -15 16 -15 80 0 64 3 80 15 80 12 0 15 -16
15 -80z m0 -231 c0 -60 -3 -80 -12 -77 -13 5 -24 128 -14 155 13 34 26 -4 26
-78z m0 -219 c0 -64 -3 -80 -15 -80 -12 0 -15 16 -15 80 0 64 3 80 15 80 12 0
15 -16 15 -80z m0 -231 c0 -60 -3 -80 -12 -77 -13 5 -24 128 -14 155 13 34 26
-4 26 -78z m0 -219 c0 -64 -3 -80 -15 -80 -12 0 -15 16 -15 80 0 64 3 80 15
80 12 0 15 -16 15 -80z"/>
<path d="M7723 7883 c-27 -10 -14 -53 22 -74 19 -12 35 -24 35 -29 0 -18 -29
-31 -56 -24 -19 5 -25 4 -20 -5 8 -12 45 -15 70 -5 30 11 19 53 -19 76 -42 24
-41 42 3 46 18 2 30 8 27 13 -6 9 -41 11 -62 2z"/>
<path d="M8520 7880 c0 -5 5 -10 10 -10 6 0 10 5 10 10 0 6 -4 10 -10 10 -5 0
-10 -4 -10 -10z"/>
<path d="M7820 7821 c0 -16 4 -41 10 -55 8 -22 15 -26 45 -24 l35 3 -2 55 c-1
49 -2 50 -5 13 -7 -78 -63 -85 -63 -7 0 24 -4 44 -10 44 -5 0 -10 -13 -10 -29z"/>
<path d="M7957 7843 c-16 -16 -5 -41 23 -53 25 -10 28 -15 18 -27 -6 -8 -20
-12 -30 -10 -10 3 -18 1 -18 -5 0 -5 15 -8 33 -6 46 4 50 41 7 63 -34 18 -30
39 6 32 13 -2 24 0 24 4 0 10 -54 12 -63 2z"/>
<path d="M8050 7768 c0 -45 4 -78 10 -78 6 0 10 14 10 31 0 19 4 28 11 24 22
-14 57 5 64 34 10 48 -9 71 -55 69 l-40 -1 0 -79z m68 60 c30 -30 -1 -94 -33
-68 -25 20 -13 80 15 80 3 0 11 -5 18 -12z"/>
<path d="M8183 7824 c-15 -24 -15 -29 -2 -53 16 -28 55 -40 73 -21 8 9 6 11
-12 5 -23 -7 -52 8 -52 26 0 5 16 9 35 9 27 0 35 4 35 18 0 45 -51 56 -77 16z
m57 1 c11 -13 8 -15 -18 -15 -24 0 -30 4 -26 15 4 8 12 15 19 15 7 0 18 -7 25
-15z"/>
<path d="M8302 7790 c1 -48 2 -50 5 -13 8 79 63 87 63 8 0 -25 5 -45 10 -45
13 0 13 66 -1 91 -7 14 -19 19 -45 17 l-34 -2 2 -56z"/>
<path d="M8427 7843 c-16 -16 -5 -41 23 -53 25 -10 28 -15 18 -27 -6 -8 -20
-12 -30 -10 -10 3 -18 1 -18 -5 0 -5 15 -8 33 -6 46 4 50 41 7 63 -34 18 -30
39 6 32 13 -2 24 0 24 4 0 10 -54 12 -63 2z"/>
<path d="M8520 7795 c0 -30 5 -55 10 -55 6 0 10 25 10 55 0 30 -4 55 -10 55
-5 0 -10 -25 -10 -55z"/>
<path d="M8579 7826 c-15 -32 -4 -73 21 -81 50 -16 81 24 61 78 -14 37 -66 39
-82 3z m59 2 c30 -30 -1 -94 -33 -68 -15 13 -21 61 -8 73 10 11 28 8 41 -5z"/>
<path d="M8700 7793 c0 -29 5 -53 10 -53 6 0 10 20 10 45 0 32 5 47 16 52 22
8 37 -10 45 -59 7 -42 7 -41 6 12 l-2 55 -42 0 -43 1 0 -53z"/>
<path d="M7907 7653 c-11 -11 -8 -153 3 -153 6 0 10 33 10 80 0 80 -1 86 -13
73z"/>
<path d="M7812 7598 c-7 -7 -12 -26 -12 -43 0 -17 5 -36 12 -43 14 -14 58 -16
58 -2 0 5 -6 7 -14 4 -15 -6 -46 21 -46 40 0 19 23 44 45 49 16 4 15 5 -5 6
-15 0 -31 -4 -38 -11z"/>
<path d="M7963 7584 c-15 -24 -15 -29 -2 -53 16 -28 55 -40 73 -21 8 9 6 11
-12 5 -23 -7 -52 8 -52 26 0 5 16 9 35 9 27 0 35 4 35 18 0 45 -51 56 -77 16z
m57 1 c11 -13 8 -15 -18 -15 -24 0 -30 4 -26 15 4 8 12 15 19 15 7 0 18 -7 25
-15z"/>
<path d="M8080 7603 c0 -5 12 -9 27 -8 39 0 40 -23 1 -33 -26 -6 -33 -13 -33
-33 0 -21 4 -24 38 -24 l38 -1 -3 51 c-3 48 -4 50 -35 53 -18 2 -33 -1 -33 -5z
m47 -80 c-16 -16 -18 -16 -34 0 -16 15 -15 17 8 26 32 12 49 -4 26 -26z"/>
<path d="M8190 7553 c0 -29 5 -53 10 -53 6 0 10 20 10 43 0 36 4 46 23 55 20
10 20 10 -10 9 -33 -2 -33 -2 -33 -54z"/>
<path d="M8280 7603 c0 -5 12 -9 27 -8 39 0 40 -23 1 -33 -26 -6 -33 -13 -33
-33 0 -21 4 -24 38 -24 l38 -1 -3 51 c-3 48 -4 50 -35 53 -18 2 -33 -1 -33 -5z
m47 -80 c-16 -16 -18 -16 -34 0 -16 15 -15 17 8 26 32 12 49 -4 26 -26z"/>
<path d="M8390 7553 c0 -29 5 -53 10 -53 6 0 10 20 10 45 0 32 5 47 16 52 22
8 37 -10 45 -59 7 -42 7 -41 6 12 l-2 55 -42 0 -43 1 0 -53z"/>
<path d="M8523 7584 c-15 -24 -15 -29 -2 -53 15 -26 69 -43 69 -22 0 6 -7 8
-15 5 -21 -8 -45 14 -45 41 0 25 15 40 45 48 15 4 14 5 -7 6 -19 1 -33 -7 -45
-25z"/>
<path d="M8623 7584 c-15 -24 -15 -29 -2 -53 16 -28 55 -40 73 -21 8 9 6 11
-12 5 -23 -7 -52 8 -52 26 0 5 16 9 35 9 27 0 35 4 35 18 0 45 -51 56 -77 16z
m57 1 c11 -13 8 -15 -18 -15 -24 0 -30 4 -26 15 4 8 12 15 19 15 7 0 18 -7 25
-15z"/>
<path d="M3278 7462 c-381 -1 -588 -6 -588 -12 0 -6 23 -10 50 -10 l50 0 -20
-41 -21 -40 20 11 21 11 3 -878 2 -878 3 879 c2 779 4 877 17 866 19 -16 19
-3 0 30 -8 14 -14 28 -15 33 0 4 252 7 560 7 319 0 560 4 560 9 0 15 -41 16
-642 13z"/>
<path d="M4020 7310 c0 -5 5 -10 10 -10 6 0 10 5 10 10 0 6 -4 10 -10 10 -5 0
-10 -4 -10 -10z"/>
<path d="M4020 7270 c0 -5 5 -10 10 -10 6 0 10 5 10 10 0 6 -4 10 -10 10 -5 0
-10 -4 -10 -10z"/>
<path d="M4020 7230 c0 -5 5 -10 10 -10 6 0 10 5 10 10 0 6 -4 10 -10 10 -5 0
-10 -4 -10 -10z"/>
<path d="M6160 7090 c0 -5 5 -10 10 -10 6 0 10 5 10 10 0 6 -4 10 -10 10 -5 0
-10 -4 -10 -10z"/>
<path d="M6160 7050 c0 -5 5 -10 10 -10 6 0 10 5 10 10 0 6 -4 10 -10 10 -5 0
-10 -4 -10 -10z"/>
<path d="M6160 7010 c0 -5 5 -10 10 -10 6 0 10 5 10 10 0 6 -4 10 -10 10 -5 0
-10 -4 -10 -10z"/>
<path d="M6160 6970 c0 -5 5 -10 10 -10 6 0 10 5 10 10 0 6 -4 10 -10 10 -5 0
-10 -4 -10 -10z"/>
<path d="M4712 6778 l-162 -113 0 -177 0 -178 275 0 275 0 -2 188 -3 187 -2
-182 -3 -183 -265 0 -265 0 0 168 1 167 159 110 159 110 113 6 113 5 -115 2
-116 2 -162 -112z"/>
<path d="M5365 6882 l250 -3 160 -113 160 -113 3 -167 2 -166 -265 0 -265 0 0
185 0 185 -145 0 c-90 0 -145 -4 -145 -10 0 -6 53 -10 140 -10 l140 0 0 -180
0 -180 275 0 275 0 0 178 0 177 -164 113 -164 112 -253 -2 -254 -3 250 -3z"/>
<path d="M4020 6860 c0 -5 5 -10 10 -10 6 0 10 5 10 10 0 6 -4 10 -10 10 -5 0
-10 -4 -10 -10z"/>
<path d="M4020 6820 c0 -5 5 -10 10 -10 6 0 10 5 10 10 0 6 -4 10 -10 10 -5 0
-10 -4 -10 -10z"/>
<path d="M6160 6600 c0 -5 5 -10 10 -10 6 0 10 5 10 10 0 6 -4 10 -10 10 -5 0
-10 -4 -10 -10z"/>
<path d="M6160 6560 c0 -5 5 -10 10 -10 6 0 10 5 10 10 0 6 -4 10 -10 10 -5 0
-10 -4 -10 -10z"/>
<path d="M8534 6549 c-10 -17 13 -36 27 -22 12 12 4 33 -11 33 -5 0 -12 -5
-16 -11z"/>
<path d="M7532 6534 c-34 -23 -28 -58 13 -84 48 -29 47 -55 -1 -47 -29 5 -35
3 -32 -11 5 -24 64 -28 89 -6 28 25 23 50 -16 80 -44 33 -47 59 -6 51 35 -7
52 18 18 27 -33 9 -40 7 -65 -10z"/>
<path d="M6160 6520 c0 -5 5 -10 10 -10 6 0 10 5 10 10 0 6 -4 10 -10 10 -5 0
-10 -4 -10 -10z"/>
<path d="M7828 6499 c-28 -16 -22 -48 12 -67 38 -22 38 -32 0 -32 -20 0 -30
-5 -30 -15 0 -10 10 -15 34 -15 33 0 66 21 66 41 0 10 -26 37 -56 57 -17 11
-16 12 14 8 23 -4 32 -2 32 8 0 24 -42 33 -72 15z"/>
<path d="M7991 6501 c-7 -5 -22 -6 -32 -4 -18 5 -19 -1 -19 -92 0 -87 2 -96
18 -93 12 2 17 13 17 35 0 29 2 31 26 26 36 -7 59 19 59 66 0 53 -34 84 -69
62z m29 -36 c17 -21 4 -67 -18 -63 -18 3 -28 39 -18 64 7 18 20 18 36 -1z"/>
<path d="M8130 6503 c-70 -25 -42 -138 32 -131 43 4 48 26 7 30 -50 5 -49 28
0 28 36 0 41 3 41 24 0 35 -44 62 -80 49z m41 -38 c0 -5 -9 -11 -21 -13 -20
-3 -27 8 -13 22 10 9 34 3 34 -9z"/>
<path d="M8296 6501 c-3 -4 -17 -6 -31 -3 -26 5 -26 4 -23 -59 2 -51 6 -64 21
-67 14 -3 17 4 17 41 0 45 19 75 40 62 5 -3 10 -28 10 -56 0 -43 2 -49 21 -49
20 0 21 4 17 61 -4 61 -15 79 -50 79 -9 0 -19 -4 -22 -9z"/>
<path d="M8418 6499 c-28 -16 -22 -48 12 -67 38 -22 38 -32 -1 -32 -41 0 -33
-24 10 -28 62 -6 84 46 31 76 -36 21 -39 36 -6 30 31 -6 43 18 13 26 -30 8
-39 7 -59 -5z"/>
<path d="M8620 6490 c-41 -41 -12 -120 43 -120 33 0 56 20 63 57 5 26 1 37
-19 57 -31 31 -60 33 -87 6z m66 -35 c8 -34 -2 -57 -23 -53 -19 3 -29 38 -19
64 9 23 35 16 42 -11z"/>
<path d="M8811 6501 c-7 -5 -22 -6 -32 -4 -17 5 -19 -1 -19 -61 0 -59 2 -66
19 -66 17 0 20 8 23 53 3 44 6 52 23 52 17 0 20 -8 23 -52 2 -38 7 -53 18 -53
11 0 14 14 14 60 0 48 -4 61 -19 70 -24 12 -32 12 -50 1z"/>
<path d="M7650 6454 c0 -71 11 -84 70 -81 l50 2 0 63 c0 48 -3 62 -15 62 -11
0 -15 -11 -15 -37 0 -46 -13 -68 -34 -60 -11 5 -16 19 -16 52 0 38 -3 45 -20
45 -17 0 -20 -7 -20 -46z"/>
<path d="M8530 6435 c0 -58 2 -65 20 -65 18 0 20 7 20 65 0 58 -2 65 -20 65
-18 0 -20 -7 -20 -65z"/>
<path d="M4020 6410 c0 -5 5 -10 10 -10 6 0 10 5 10 10 0 6 -4 10 -10 10 -5 0
-10 -4 -10 -10z"/>
<path d="M4020 6370 c0 -5 5 -10 10 -10 6 0 10 5 10 10 0 6 -4 10 -10 10 -5 0
-10 -4 -10 -10z"/>
<path d="M4020 6330 c0 -5 5 -10 10 -10 6 0 10 5 10 10 0 6 -4 10 -10 10 -5 0
-10 -4 -10 -10z"/>
<path d="M4020 6290 c0 -5 5 -10 10 -10 6 0 10 5 10 10 0 6 -4 10 -10 10 -5 0
-10 -4 -10 -10z"/>
<path d="M5914 6177 c-3 -8 -4 -49 -2 -93 3 -66 6 -79 21 -82 12 -3 17 3 17
22 0 33 15 33 36 1 9 -14 25 -25 35 -25 25 0 24 7 -6 45 -24 32 -24 33 -5 50
25 23 25 35 1 35 -11 0 -29 -12 -40 -27 l-20 -28 -1 58 c0 44 -3 57 -15 57 -9
0 -18 -6 -21 -13z"/>
<path d="M5490 6091 l0 -91 34 0 c74 0 110 36 80 79 -9 12 -11 22 -4 26 13 8
13 52 0 60 -5 3 -32 9 -60 12 l-50 6 0 -92z m78 36 c3 -12 -3 -17 -22 -17 -25
0 -35 18 -19 34 12 12 38 2 41 -17z m1 -56 c12 -8 12 -12 2 -25 -24 -29 -60
-13 -47 19 6 17 24 19 45 6z"/>
<path d="M6160 6150 c0 -5 5 -10 10 -10 6 0 10 5 10 10 0 6 -4 10 -10 10 -5 0
-10 -4 -10 -10z"/>
<path d="M5705 6130 c-3 -6 -17 -7 -31 -4 -24 6 -24 5 -24 -60 0 -59 2 -66 20
-66 17 0 20 7 20 45 0 39 3 47 25 55 14 5 25 16 25 25 0 17 -25 21 -35 5z"/>
<path d="M5787 6133 c-27 -7 -14 -28 15 -25 15 2 29 -2 33 -7 6 -11 0 -15 -48
-26 -25 -5 -28 -10 -25 -38 3 -32 4 -32 56 -32 l52 -1 0 58 c0 71 -20 87 -83
71z m53 -82 c0 -6 -5 -13 -10 -16 -15 -9 -43 3 -35 15 8 13 45 13 45 1z"/>
<path d="M6085 6115 c-50 -49 -17 -119 53 -113 24 2 38 8 40 19 2 13 -5 16
-34 15 -21 -1 -39 4 -41 12 -3 8 8 12 36 12 38 0 41 2 41 28 0 21 -7 32 -25
40 -36 17 -43 15 -70 -13z m63 -22 c2 -8 -6 -13 -22 -13 -25 0 -33 10 -19 24
10 10 36 3 41 -11z"/>
<path d="M6228 6129 c-28 -16 -22 -48 12 -67 38 -22 38 -32 -1 -32 -41 0 -33
-24 10 -28 62 -6 84 46 31 76 -36 21 -39 36 -6 30 31 -6 43 18 13 26 -30 8
-39 7 -59 -5z"/>
<path d="M4020 5920 c0 -5 5 -10 10 -10 6 0 10 5 10 10 0 6 -4 10 -10 10 -5 0
-10 -4 -10 -10z"/>
<path d="M4020 5880 c0 -5 5 -10 10 -10 6 0 10 5 10 10 0 6 -4 10 -10 10 -5 0
-10 -4 -10 -10z"/>
<path d="M4020 5840 c0 -5 5 -10 10 -10 6 0 10 5 10 10 0 6 -4 10 -10 10 -5 0
-10 -4 -10 -10z"/>
<path d="M6160 5700 c0 -5 5 -10 10 -10 6 0 10 5 10 10 0 6 -4 10 -10 10 -5 0
-10 -4 -10 -10z"/>
<path d="M6160 5620 c0 -5 5 -10 10 -10 6 0 10 5 10 10 0 6 -4 10 -10 10 -5 0
-10 -4 -10 -10z"/>
<path d="M1747 5603 c-11 -11 -8 -153 3 -153 6 0 10 33 10 80 0 80 -1 86 -13
73z"/>
<path d="M1803 5530 c0 -47 2 -66 4 -42 2 23 2 61 0 85 -2 23 -4 4 -4 -43z"/>
<path d="M1180 5582 c-48 -39 -20 -132 40 -132 37 0 62 31 62 76 0 63 -56 94
-102 56z m81 -26 c26 -56 -20 -112 -67 -81 -26 17 -32 52 -14 86 16 29 67 26
81 -5z"/>
<path d="M6160 5580 c0 -5 5 -10 10 -10 6 0 10 5 10 10 0 6 -4 10 -10 10 -5 0
-10 -4 -10 -10z"/>
<path d="M1310 5553 c0 -23 36 -103 45 -100 12 4 48 97 41 105 -3 3 -14 -15
-25 -39 l-19 -44 -11 28 c-6 16 -11 32 -11 37 0 5 -4 12 -10 15 -5 3 -10 3
-10 -2z"/>
<path d="M1432 5548 c-20 -20 -15 -76 7 -88 24 -12 61 -13 61 -1 0 5 -8 7 -19
4 -10 -2 -26 4 -36 14 -18 17 -17 18 23 21 44 3 49 10 32 43 -12 21 -50 25
-68 7z m56 -15 c2 -8 -6 -13 -22 -13 -25 0 -33 10 -19 24 10 10 36 3 41 -11z"/>
<path d="M1540 5503 c0 -29 5 -53 10 -53 6 0 10 20 10 43 0 36 4 46 23 55 20
10 20 10 -10 9 -33 -2 -33 -2 -33 -54z"/>
<path d="M1630 5553 c0 -5 12 -9 27 -8 39 0 40 -23 1 -33 -26 -6 -33 -13 -33
-33 0 -21 4 -24 38 -24 l38 -1 -3 51 c-3 48 -4 50 -35 53 -18 2 -33 -1 -33 -5z
m47 -80 c-16 -16 -18 -16 -34 0 -16 15 -15 17 8 26 32 12 49 -4 26 -26z"/>
<path d="M6160 5540 c0 -5 5 -10 10 -10 6 0 10 5 10 10 0 6 -4 10 -10 10 -5 0
-10 -4 -10 -10z"/>
<path d="M6160 5500 c0 -5 5 -10 10 -10 6 0 10 5 10 10 0 6 -4 10 -10 10 -5 0
-10 -4 -10 -10z"/>
<path d="M4020 5470 c0 -5 5 -10 10 -10 6 0 10 5 10 10 0 6 -4 10 -10 10 -5 0
-10 -4 -10 -10z"/>
<path d="M2632 5383 c0 -43 3 -63 5 -45 5 42 32 43 56 2 10 -16 23 -30 28 -30
6 0 1 15 -10 33 -19 30 -19 35 -5 49 31 31 -1 67 -58 68 -16 0 -18 -10 -16
-77z m63 32 c0 -14 -8 -21 -27 -23 -24 -3 -28 0 -28 23 0 23 4 26 28 23 19 -2
27 -9 27 -23z"/>
<path d="M4020 5430 c0 -5 5 -10 10 -10 6 0 10 5 10 10 0 6 -4 10 -10 10 -5 0
-10 -4 -10 -10z"/>
<path d="M2763 5365 c0 -33 2 -45 4 -27 2 18 2 45 0 60 -2 15 -4 0 -4 -33z"/>
<path d="M2811 5361 c1 -53 2 -54 8 -16 8 48 17 65 36 65 15 0 21 -18 28 -75
3 -23 4 -21 6 11 2 81 56 81 64 1 3 -31 4 -27 3 13 l-1 55 -72 1 -73 1 1 -56z"/>
<path d="M5995 5396 c-34 -34 -51 -97 -36 -134 37 -90 151 -34 151 74 0 76
-65 110 -115 60z m90 -16 c34 -37 0 -133 -51 -146 -51 -13 -79 45 -54 113 20
54 72 70 105 33z"/>
<path d="M4020 5390 c0 -5 5 -10 10 -10 6 0 10 5 10 10 0 6 -4 10 -10 10 -5 0
-10 -4 -10 -10z"/>
<path d="M1383 5280 c0 -65 1 -75 6 -42 8 48 23 67 45 59 11 -5 16 -20 16 -52
0 -25 5 -45 10 -45 6 0 10 20 10 44 0 50 -18 71 -54 64 -22 -4 -25 -1 -29 26
-2 17 -4 -7 -4 -54z"/>
<path d="M1743 5280 c0 -47 2 -66 4 -42 2 23 2 61 0 85 -2 23 -4 4 -4 -43z"/>
<path d="M6160 5330 c0 -5 5 -10 10 -10 6 0 10 5 10 10 0 6 -4 10 -10 10 -5 0
-10 -4 -10 -10z"/>
<path d="M1203 5296 c3 -8 11 -33 17 -55 14 -52 26 -52 41 -1 14 46 24 44 33
-6 4 -19 12 -34 18 -32 10 4 37 78 38 102 0 19 -15 -7 -26 -42 l-11 -37 -13
43 c-16 51 -31 50 -46 -3 -11 -42 -18 -39 -29 13 -3 17 -11 32 -17 32 -6 0 -8
-6 -5 -14z"/>
<path d="M1510 5291 c-14 -28 -12 -57 6 -75 18 -18 60 -21 70 -5 4 8 -1 9 -15
4 -22 -7 -51 9 -51 26 0 5 16 9 35 9 27 0 35 4 35 18 0 41 -60 59 -80 23z m58
-8 c2 -8 -6 -13 -22 -13 -25 0 -33 10 -19 24 10 10 36 3 41 -11z"/>
<path d="M1632 5298 c-7 -7 -12 -26 -12 -43 0 -17 5 -36 12 -43 14 -14 68 -16
68 -3 0 5 -9 7 -20 4 -20 -5 -50 12 -50 28 0 5 15 9 34 9 41 0 47 7 35 38 -9
24 -47 30 -67 10z m52 -13 c4 -11 -2 -15 -26 -15 -26 0 -29 2 -18 15 7 8 18
15 25 15 7 0 15 -7 19 -15z"/>
<path d="M6160 5290 c0 -5 5 -10 10 -10 6 0 10 5 10 10 0 6 -4 10 -10 10 -5 0
-10 -4 -10 -10z"/>
<path d="M6160 5250 c0 -5 5 -10 10 -10 6 0 10 5 10 10 0 6 -4 10 -10 10 -5 0
-10 -4 -10 -10z"/>
<path d="M2450 5191 c0 -25 -3 -28 -25 -23 -34 6 -55 -14 -55 -53 0 -40 17
-55 58 -52 l32 2 0 78 c0 42 -2 77 -5 77 -3 0 -5 -13 -5 -29z m-9 -55 c13 -28
-3 -66 -27 -66 -23 0 -38 43 -25 69 15 28 39 27 52 -3z"/>
<path d="M6160 5210 c0 -5 5 -10 10 -10 6 0 10 5 10 10 0 6 -4 10 -10 10 -5 0
-10 -4 -10 -10z"/>
<path d="M2972 5174 c-7 -8 -8 -14 -3 -14 5 0 11 -21 13 -47 2 -39 7 -48 23
-51 18 -2 18 -2 3 8 -12 8 -18 24 -18 50 0 31 4 40 18 41 13 0 14 2 2 6 -8 3
-17 9 -20 13 -3 4 -11 2 -18 -6z"/>
<path d="M6160 5170 c0 -5 5 -10 10 -10 6 0 10 5 10 10 0 6 -4 10 -10 10 -5 0
-10 -4 -10 -10z"/>
<path d="M2503 5115 c0 -33 2 -45 4 -27 2 18 2 45 0 60 -2 15 -4 0 -4 -33z"/>
<path d="M2560 5162 c0 -6 9 -8 21 -5 12 4 25 0 30 -8 6 -10 0 -17 -24 -25
-24 -8 -32 -17 -32 -35 0 -21 5 -24 38 -24 l38 -1 -3 51 c-3 48 -4 50 -35 53
-18 2 -33 -1 -33 -6z m49 -73 c-11 -22 -40 -22 -47 -1 -4 12 37 33 51 25 4 -2
2 -13 -4 -24z"/>
<path d="M2671 5111 c1 -53 2 -54 8 -16 8 48 17 65 36 65 15 0 21 -18 28 -75
3 -23 4 -21 6 11 2 81 56 81 64 1 3 -31 4 -27 3 13 l-1 55 -72 1 -73 1 1 -56z"/>
<path d="M2872 5158 c-7 -7 -12 -26 -12 -43 0 -17 5 -36 12 -43 14 -14 68 -16
68 -3 0 5 -9 7 -20 4 -20 -5 -50 12 -50 28 0 5 15 9 34 9 41 0 47 7 35 38 -9
24 -47 30 -67 10z m52 -13 c4 -11 -2 -15 -26 -15 -26 0 -29 2 -18 15 7 8 18
15 25 15 7 0 15 -7 19 -15z"/>
<path d="M3062 5158 c-7 -7 -12 -26 -12 -43 0 -17 5 -36 12 -43 14 -14 68 -16
68 -3 0 5 -9 7 -20 4 -20 -5 -50 12 -50 28 0 5 15 9 34 9 41 0 47 7 35 38 -9
24 -47 30 -67 10z m52 -13 c4 -11 -2 -15 -26 -15 -26 0 -29 2 -18 15 7 8 18
15 25 15 7 0 15 -7 19 -15z"/>
<path d="M3171 5110 c1 -30 3 -44 6 -30 9 58 15 71 36 80 19 7 18 8 -10 7
l-33 -2 1 -55z"/>
<path d="M6160 5130 c0 -5 5 -10 10 -10 6 0 10 5 10 10 0 6 -4 10 -10 10 -5 0
-10 -4 -10 -10z"/>
<path d="M1140 5091 c0 -25 -3 -28 -25 -23 -34 6 -55 -14 -55 -53 0 -40 17
-55 58 -52 l32 2 0 78 c0 42 -2 77 -5 77 -3 0 -5 -13 -5 -29z m-9 -55 c13 -28
-3 -66 -27 -66 -23 0 -38 43 -25 69 15 28 39 27 52 -3z"/>
<path d="M1190 5100 c0 -5 5 -10 10 -10 6 0 10 5 10 10 0 6 -4 10 -10 10 -5 0
-10 -4 -10 -10z"/>
<path d="M6160 5090 c0 -5 5 -10 10 -10 6 0 10 5 10 10 0 6 -4 10 -10 10 -5 0
-10 -4 -10 -10z"/>
<path d="M1668 5078 c-2 -5 -1 -33 2 -61 4 -46 8 -52 30 -55 l25 -3 -22 16
c-30 21 -32 72 -4 83 19 7 19 8 -4 18 -15 7 -25 8 -27 2z"/>
<path d="M1190 5015 c0 -30 5 -55 10 -55 6 0 10 25 10 55 0 30 -4 55 -10 55
-5 0 -10 -25 -10 -55z"/>
<path d="M1250 5062 c0 -6 9 -8 21 -5 12 4 25 0 30 -8 6 -10 0 -17 -24 -25
-24 -8 -32 -17 -32 -35 0 -21 5 -24 38 -24 l38 -1 -3 51 c-3 48 -4 50 -35 53
-18 2 -33 -1 -33 -6z m49 -73 c-11 -22 -40 -22 -47 -1 -4 12 37 33 51 25 4 -2
2 -13 -4 -24z"/>
<path d="M1360 5013 c0 -66 18 -70 22 -5 3 39 6 47 23 47 17 0 21 -9 26 -50 3
-27 7 -38 7 -23 6 89 53 106 63 23 l6 -50 -1 55 -1 55 -72 0 -73 1 0 -53z"/>
<path d="M1562 5058 c-7 -7 -12 -26 -12 -43 0 -17 5 -36 12 -43 14 -14 68 -16
68 -3 0 5 -9 7 -20 4 -20 -5 -50 12 -50 28 0 5 15 9 34 9 41 0 47 7 35 38 -9
24 -47 30 -67 10z m52 -13 c4 -11 -2 -15 -26 -15 -26 0 -29 2 -18 15 7 8 18
15 25 15 7 0 15 -7 19 -15z"/>
<path d="M1752 5058 c-20 -20 -15 -76 7 -88 24 -12 61 -13 61 -1 0 5 -8 7 -19
4 -10 -2 -26 4 -36 14 -18 17 -17 18 23 21 44 3 49 10 32 43 -12 21 -50 25
-68 7z m56 -15 c2 -8 -6 -13 -22 -13 -25 0 -33 10 -19 24 10 10 36 3 41 -11z"/>
<path d="M1860 5013 c0 -29 5 -53 10 -53 6 0 10 20 10 43 0 36 4 46 23 55 20
10 20 10 -10 9 -33 -2 -33 -2 -33 -54z"/>
<path d="M4020 5020 c0 -5 5 -10 10 -10 6 0 10 5 10 10 0 6 -4 10 -10 10 -5 0
-10 -4 -10 -10z"/>
<path d="M4350 4960 c0 -94 32 -150 96 -170 21 -6 -4 -9 -83 -9 l-113 -1 0
-60 0 -60 61 0 c56 0 66 -3 105 -35 42 -35 43 -35 138 -35 l96 0 0 -50 0 -50
-98 0 c-98 0 -99 0 -139 -35 -37 -32 -47 -35 -102 -35 l-61 0 0 -49 c0 -34
-15 -91 -50 -185 -79 -216 -149 -479 -150 -558 0 -18 -5 -28 -15 -28 -18 0
-20 -16 -2 -23 9 -4 8 -8 -3 -16 -13 -10 -13 -12 -1 -20 12 -8 12 -12 2 -24
-9 -12 -9 -16 1 -19 11 -4 11 -8 0 -20 -10 -13 -10 -17 0 -20 11 -4 11 -8 0
-20 -10 -13 -10 -17 0 -20 10 -4 10 -8 -1 -21 -9 -11 -10 -17 -2 -17 15 0 14
-27 -1 -33 -10 -4 -10 -6 0 -6 15 -1 16 -31 1 -31 -6 0 -4 -7 4 -14 8 -8 18
-39 21 -69 4 -30 13 -77 20 -105 13 -49 13 -50 -10 -61 -15 -6 -24 -7 -24 -1
0 6 -4 10 -10 10 -23 0 -7 -17 33 -37 39 -19 48 -30 93 -124 l51 -104 -36 -58
-36 -58 -55 2 c-30 1 -60 1 -66 0 -6 0 -21 -24 -34 -52 l-24 -51 -48 4 c-46 3
-48 2 -48 -23 0 -31 15 -39 74 -39 41 0 43 2 66 50 l23 50 173 0 173 0 53 85
53 85 103 0 104 0 108 -85 108 -85 101 0 c61 0 101 4 101 10 0 6 -39 10 -97
10 l-98 0 -40 36 c-38 34 -39 35 -4 10 33 -24 44 -26 137 -26 61 0 102 4 102
10 0 6 -39 10 -98 10 l-99 0 -107 85 -107 85 -107 0 -107 0 -42 79 c-24 43
-43 84 -43 90 0 8 99 11 355 11 230 0 355 4 355 10 0 6 -128 10 -363 10 l-363
0 -14 38 c-34 94 -51 185 -56 302 -12 257 64 480 272 792 75 113 84 132 84
172 l0 46 223 2 222 3 -213 2 -212 3 2 183 3 182 398 0 398 0 3 -67 c4 -85 46
-178 112 -248 l47 -50 -259 0 -259 0 3 -155 3 -155 -190 0 c-170 0 -190 2
-184 16 5 15 3 15 -25 0 -46 -24 -51 -21 -55 32 -2 26 -3 -47 -3 -163 0 -115
1 -186 3 -157 2 28 6 52 9 52 3 0 24 -9 47 -21 23 -12 36 -15 30 -8 -7 7 -13
17 -13 21 0 4 68 8 151 8 130 0 150 -2 145 -15 -7 -18 2 -18 34 0 50 28 50 28
50 -167 0 -154 -3 -191 -19 -232 -19 -51 -24 -51 -36 2 -3 17 -11 32 -17 32
-6 0 -8 -6 -5 -14 3 -8 11 -33 17 -55 6 -23 15 -41 20 -41 4 0 15 19 23 43 14
38 16 39 16 14 1 -36 27 -65 44 -48 15 15 54 14 60 -1 4 -10 6 -10 6 0 1 14
47 16 56 2 3 -5 22 -9 41 -7 l34 2 0 213 c0 127 4 212 9 212 16 0 754 -160
771 -167 8 -4 24 -7 35 -8 11 -1 54 -9 95 -18 257 -59 725 -157 734 -153 6 2
5 6 -4 9 -8 4 -350 79 -760 167 -410 89 -775 168 -812 176 l-68 16 0 119 0
119 450 0 c408 0 449 -1 443 -16 -5 -14 -3 -14 27 1 25 13 34 14 40 5 6 -9 9
-9 11 -1 3 8 164 -26 508 -109 437 -104 531 -124 510 -107 -2 2 -229 58 -504
124 -337 81 -504 117 -512 110 -8 -6 -13 -6 -13 0 0 5 -16 17 -36 27 -32 14
-36 15 -31 1 6 -13 -42 -15 -443 -15 l-450 0 0 150 0 150 145 0 c130 0 150 -2
198 -24 50 -22 336 -116 353 -116 28 0 -31 24 -161 65 -194 61 -242 84 -299
145 -66 70 -99 146 -104 240 -3 64 1 89 28 175 18 55 35 106 37 112 3 7 1 13
-4 13 -6 0 -25 -50 -44 -110 l-34 -111 -528 3 -529 3 -29 33 c-27 30 -29 39
-29 107 0 43 -4 75 -10 75 -6 0 -10 -27 -10 -60z m290 -270 l0 -70 -91 0 c-86
0 -93 2 -129 30 -32 25 -47 30 -94 30 l-56 0 0 40 0 40 185 0 185 0 0 -70z m0
-291 l0 -71 -83 -127 c-150 -226 -220 -379 -257 -561 -37 -178 -20 -395 45
-562 7 -17 -3 -18 -114 -18 -118 0 -121 1 -111 20 8 15 8 18 -3 14 -10 -3 -17
11 -25 48 -27 126 -34 208 -29 348 8 208 50 393 157 686 32 86 50 152 50 180
l0 44 56 0 c49 0 61 4 97 35 40 34 42 35 129 35 l88 0 0 -71z m718 -141 l3
-148 -111 0 -110 0 0 150 0 151 108 -3 107 -3 3 -147z m-626 -184 c28 -15 30
-15 25 0 -6 14 13 16 183 16 l190 0 0 -95 c0 -59 -4 -95 -10 -95 -6 0 -30 9
-53 21 -23 12 -36 15 -29 8 6 -7 12 -17 12 -21 0 -4 -67 -8 -150 -8 -82 0
-150 4 -150 8 0 4 6 14 13 21 6 7 -7 4 -30 -8 -23 -12 -45 -21 -48 -21 -3 0
-5 43 -5 95 0 60 4 95 10 95 6 0 25 -7 42 -16z m628 -99 c0 -134 11 -126 -129
-94 l-91 21 0 94 0 94 110 0 110 0 0 -115z m-110 -115 c51 -12 97 -23 102 -26
9 -6 11 -220 2 -286 -6 -42 -8 -44 -34 -40 -31 4 -39 -4 -42 -42 -2 -17 -8
-26 -20 -26 -14 0 -18 9 -20 38 l-1 37 -4 -37 c-3 -30 -8 -38 -25 -38 -18 0
-19 4 -13 36 8 44 -10 38 -20 -7 -5 -23 -10 -28 -19 -20 -13 14 -22 431 -9
431 5 0 51 -9 103 -20z m98 -393 c3 -24 0 -27 -27 -27 -23 0 -31 5 -31 18 0
46 53 55 58 9z m-941 -524 l49 -98 115 -3 114 -3 45 -41 45 -40 -41 31 c-41
30 -44 31 -157 31 l-115 0 -53 -85 -52 -85 -174 0 c-114 0 -172 3 -168 10 3 6
35 10 69 10 l64 0 42 67 42 67 -45 90 c-25 50 -49 103 -52 119 l-7 27 114 0
115 0 50 -97z m398 -203 c10 -11 16 -20 13 -20 -3 0 -13 9 -23 20 -10 11 -16
20 -13 20 3 0 13 -9 23 -20z m-840 -180 c-3 -5 -25 -9 -48 -8 l-42 1 45 7 c25
4 46 8 48 8 2 1 0 -2 -3 -8z"/>
<path d="M6160 5010 c0 -5 5 -10 10 -10 6 0 10 5 10 10 0 6 -4 10 -10 10 -5 0
-10 -4 -10 -10z"/>
<path d="M6406 4840 c-31 -99 -62 -180 -68 -180 -5 0 -8 -6 -5 -14 5 -13 -113
-389 -126 -402 -3 -3 -29 2 -57 11 -28 9 -54 14 -57 11 -6 -5 40 -26 58 -26 5
0 9 -4 9 -8 0 -5 13 -9 29 -10 30 -1 30 1 81 154 29 85 55 152 59 150 4 -3 7
10 8 28 1 24 102 352 140 454 3 6 1 12 -4 12 -5 0 -35 -81 -67 -180z"/>
<path d="M4020 4980 c0 -5 5 -10 10 -10 6 0 10 5 10 10 0 6 -4 10 -10 10 -5 0
-10 -4 -10 -10z"/>
<path d="M4020 4940 c0 -5 5 -10 10 -10 6 0 10 5 10 10 0 6 -4 10 -10 10 -5 0
-10 -4 -10 -10z"/>
<path d="M4020 4900 c0 -5 5 -10 10 -10 6 0 10 5 10 10 0 6 -4 10 -10 10 -5 0
-10 -4 -10 -10z"/>
<path d="M6160 4880 c0 -5 5 -10 10 -10 6 0 10 5 10 10 0 6 -4 10 -10 10 -5 0
-10 -4 -10 -10z"/>
<path d="M6160 4840 c0 -5 5 -10 10 -10 6 0 10 5 10 10 0 6 -4 10 -10 10 -5 0
-10 -4 -10 -10z"/>
<path d="M5797 4801 c-41 -49 -43 -138 -4 -163 38 -24 98 6 118 59 38 101 -49
181 -114 104z m93 -3 c24 -26 25 -45 4 -96 -20 -53 -54 -71 -89 -48 -53 35
-13 164 52 166 7 0 21 -10 33 -22z"/>
<path d="M6160 4800 c0 -5 5 -10 10 -10 6 0 10 5 10 10 0 6 -4 10 -10 10 -5 0
-10 -4 -10 -10z"/>
<path d="M6160 4760 c0 -5 5 -10 10 -10 6 0 10 5 10 10 0 6 -4 10 -10 10 -5 0
-10 -4 -10 -10z"/>
<path d="M6160 4720 c0 -5 5 -10 10 -10 6 0 10 5 10 10 0 6 -4 10 -10 10 -5 0
-10 -4 -10 -10z"/>
<path d="M2468 4715 c-3 -3 -3 -26 0 -50 4 -43 4 -45 -22 -45 l-27 0 21 31
c12 16 20 32 17 35 -3 3 -17 -12 -31 -33 l-26 -38 35 -3 c27 -2 35 -8 35 -23
0 -10 5 -19 10 -19 6 0 10 9 10 19 0 11 6 22 13 24 10 4 10 6 0 6 -9 1 -13 18
-13 51 0 45 -7 60 -22 45z"/>
<path d="M2540 4710 c-11 -7 -5 -10 23 -10 31 0 38 -3 35 -17 -2 -10 -14 -23
-27 -29 l-24 -12 24 -4 c27 -3 38 -36 17 -49 -7 -5 -23 -7 -35 -4 -13 3 -23 1
-23 -5 0 -7 15 -10 36 -8 46 4 65 29 46 59 -10 15 -11 24 -3 32 15 15 14 23
-5 41 -18 18 -42 20 -64 6z"/>
<path d="M2663 4713 c-24 -9 -13 -20 17 -15 47 7 50 -22 6 -67 -48 -49 -46
-61 9 -61 25 0 45 5 45 10 0 6 -17 10 -37 10 l-37 0 32 33 c56 57 32 118 -35
90z"/>
<path d="M6160 4680 c0 -5 5 -10 10 -10 6 0 10 5 10 10 0 6 -4 10 -10 10 -5 0
-10 -4 -10 -10z"/>
<path d="M2831 4621 c1 -53 2 -54 8 -16 8 48 17 65 36 65 15 0 21 -18 28 -75
3 -23 4 -21 6 11 2 81 56 81 64 1 3 -31 4 -27 3 13 l-1 55 -72 1 -73 1 1 -56z"/>
<path d="M3021 4621 c1 -53 2 -54 8 -16 8 48 17 65 36 65 15 0 21 -18 28 -75
3 -23 4 -21 6 11 2 81 56 81 64 1 3 -31 4 -27 3 13 l-1 55 -72 1 -73 1 1 -56z"/>
<path d="M6160 4640 c0 -5 5 -10 10 -10 6 0 10 5 10 10 0 6 -4 10 -10 10 -5 0
-10 -4 -10 -10z"/>
<path d="M1133 4605 c-12 -9 -25 -31 -29 -50 -12 -66 46 -112 80 -64 22 32 6
64 -33 64 -41 0 -40 20 2 45 17 11 25 20 17 20 -9 0 -25 -7 -37 -15z m45 -81
c4 -29 -23 -51 -43 -34 -16 13 -20 42 -8 54 14 14 48 1 51 -20z"/>
<path d="M1230 4610 c-11 -7 -5 -10 23 -10 31 0 38 -3 35 -17 -2 -10 -14 -23
-27 -29 l-24 -12 24 -4 c27 -3 38 -36 17 -49 -7 -5 -23 -7 -35 -4 -13 3 -23 1
-23 -5 0 -7 15 -10 36 -8 46 4 65 29 46 59 -10 15 -11 24 -3 32 15 15 14 23
-5 41 -18 18 -42 20 -64 6z"/>
<path d="M1398 4615 c-3 -3 -3 -26 0 -50 4 -43 4 -45 -22 -45 l-27 0 21 31
c12 16 20 32 17 35 -3 3 -17 -12 -31 -33 l-26 -38 35 -3 c27 -2 35 -8 35 -23
0 -10 5 -19 10 -19 6 0 10 9 10 19 0 11 6 22 13 24 10 4 10 6 0 6 -9 1 -13 18
-13 51 0 45 -7 60 -22 45z"/>
<path d="M6160 4600 c0 -5 5 -10 10 -10 6 0 10 5 10 10 0 6 -4 10 -10 10 -5 0
-10 -4 -10 -10z"/>
<path d="M1521 4521 c1 -53 2 -54 8 -16 8 48 17 65 36 65 15 0 21 -18 28 -75
3 -23 4 -21 6 11 2 81 56 81 64 1 3 -31 4 -27 3 13 l-1 55 -72 1 -73 1 1 -56z"/>
<path d="M1710 4523 c0 -66 18 -70 22 -5 3 39 6 47 23 47 17 0 21 -9 26 -50 3
-27 7 -38 7 -23 6 89 53 106 63 23 l6 -50 -1 55 -1 55 -72 0 -73 1 0 -53z"/>
<path d="M6160 4560 c0 -5 5 -10 10 -10 6 0 10 5 10 10 0 6 -4 10 -10 10 -5 0
-10 -4 -10 -10z"/>
<path d="M4020 4530 c0 -5 5 -10 10 -10 6 0 10 5 10 10 0 6 -4 10 -10 10 -5 0
-10 -4 -10 -10z"/>
<path d="M6160 4520 c0 -5 5 -10 11 -10 5 0 7 5 4 10 -3 6 -8 10 -11 10 -2 0
-4 -4 -4 -10z"/>
<path d="M4020 4490 c0 -5 5 -10 10 -10 6 0 10 5 10 10 0 6 -4 10 -10 10 -5 0
-10 -4 -10 -10z"/>
<path d="M4020 4450 c0 -5 5 -10 10 -10 6 0 10 5 10 10 0 6 -4 10 -10 10 -5 0
-10 -4 -10 -10z"/>
<path d="M6160 4430 c0 -5 5 -10 10 -10 6 0 10 5 10 10 0 6 -4 10 -10 10 -5 0
-10 -4 -10 -10z"/>
<path d="M2792 3557 l-2 -848 -21 11 -20 11 21 -40 20 -41 -50 0 c-27 0 -50
-4 -50 -10 0 -7 212 -10 615 -10 403 0 615 3 615 10 0 7 -193 10 -560 10
l-560 0 20 40 c18 36 13 58 -7 28 -4 -7 -10 370 -13 837 l-5 850 -3 -848z"/>
<path d="M6160 4390 c0 -5 5 -10 10 -10 6 0 10 5 10 10 0 6 -4 10 -10 10 -5 0
-10 -4 -10 -10z"/>
<path d="M6160 4350 c0 -5 5 -10 10 -10 6 0 10 5 10 10 0 6 -4 10 -10 10 -5 0
-10 -4 -10 -10z"/>
<path d="M1482 2928 c-1 -769 -6 -1398 -10 -1398 -4 0 -14 6 -21 12 -7 7 -4
-6 8 -30 l21 -42 -45 0 c-25 0 -45 -4 -45 -10 0 -7 413 -10 1220 -10 l1220 0
2 -302 c1 -167 3 -282 5 -256 2 27 6 48 9 48 3 0 24 -9 47 -21 23 -12 36 -15
30 -8 -7 7 -13 17 -13 21 0 4 538 8 1195 8 657 0 1195 -4 1195 -8 0 -4 -6 -14
-12 -21 -7 -7 6 -4 29 8 23 12 44 21 47 21 3 0 7 -21 9 -47 2 -27 4 23 5 110
1 86 6 157 10 157 8 0 438 -85 480 -95 12 -3 22 -1 22 3 0 5 -107 30 -237 56
-131 26 -246 49 -255 52 -16 5 -18 20 -18 140 l0 134 505 0 c330 0 505 3 505
10 0 6 -20 10 -45 10 l-45 0 21 43 c12 23 15 36 8 30 -7 -7 -17 -13 -21 -13
-4 0 -8 221 -8 491 0 436 2 490 15 479 19 -16 19 -3 0 30 -21 37 -19 40 30 40
25 0 45 5 45 10 0 7 -198 10 -573 10 l-574 0 -23 50 -23 50 -544 0 c-355 0
-543 -3 -543 -10 0 -7 185 -10 534 -10 346 0 537 -4 541 -10 4 -7 -177 -10
-534 -10 -354 0 -541 -3 -541 -10 0 -7 186 -10 539 -10 482 0 539 -2 545 -16
3 -9 6 -16 6 -17 0 -1 -148 -1 -328 1 l-328 3 -22 -71 c-13 -38 -27 -70 -33
-70 -14 0 -11 21 10 83 l20 57 -200 0 c-192 0 -199 -1 -199 -20 0 -11 -7 -20
-15 -20 -8 0 -15 9 -15 20 0 20 -7 20 -530 20 l-530 0 0 -45 c0 -40 -3 -45
-22 -45 -59 0 -128 -78 -165 -184 -16 -46 -18 -89 -16 -453 l3 -403 -1170 0
-1170 0 21 43 c12 23 15 36 8 30 -7 -7 -17 -13 -21 -13 -4 0 -9 629 -11 1398
l-2 1397 -3 -1397z m4743 -378 c5 -17 15 -20 60 -20 44 0 53 3 58 20 5 20 14
20 476 20 259 0 471 -3 471 -7 -1 -5 -7 -19 -15 -33 -19 -33 -19 -46 0 -30 13
11 15 -43 15 -479 0 -270 -4 -491 -8 -491 -4 0 -14 6 -21 13 -7 6 -4 -7 8 -30
l21 -43 -454 0 -455 0 2 413 2 412 -24 55 c-44 98 -105 160 -161 160 -16 0
-20 6 -20 30 0 23 5 30 19 30 11 0 23 -9 26 -20z m83 3 c-10 -2 -28 -2 -40 0
-13 2 -5 4 17 4 22 1 32 -1 23 -4z m-1190 -133 c-4 -107 -22 -108 -26 -2 -2
69 0 82 13 82 13 0 15 -13 13 -80z m335 -95 c-13 -41 -29 -75 -34 -75 -5 0 -9
4 -9 8 0 7 27 90 45 140 3 7 9 11 14 7 6 -3 -1 -37 -16 -80z m-333 -136 c0
-64 -3 -79 -15 -79 -12 0 -15 15 -15 78 0 43 3 82 6 85 17 16 24 -10 24 -84z
m264 -75 c-25 -81 -30 -91 -41 -81 -10 11 39 157 53 157 8 0 5 -23 -12 -76z
m-266 -144 c-4 -107 -22 -108 -26 -2 -2 69 0 82 13 82 13 0 15 -13 13 -80z
m214 4 c9 -8 -42 -154 -53 -154 -12 0 -12 1 13 86 20 70 27 82 40 68z m-212
-235 c0 -64 -3 -79 -15 -79 -12 0 -15 15 -15 78 0 43 3 82 6 85 17 16 24 -10
24 -84z m123 -54 c-13 -41 -29 -75 -34 -75 -13 0 -12 5 13 82 12 37 27 68 34
68 9 0 5 -22 -13 -75z m1127 -95 l0 -120 -142 1 c-135 1 -141 1 -109 15 89 39
193 130 230 202 6 12 14 22 16 22 3 0 5 -54 5 -120z m-2484 62 c35 -54 143
-140 206 -164 l43 -17 -147 0 -148 -1 0 115 c0 63 3 115 8 114 4 0 21 -21 38
-47z m1232 -109 c-4 -81 -28 -85 -28 -4 0 48 3 61 15 61 13 0 15 -11 13 -57z
m76 -15 c-3 -12 -13 -35 -20 -52 l-13 -31 0 30 c-1 45 10 75 26 75 10 0 12 -6
7 -22z m-73 -98 c15 -4 31 -5 35 0 5 4 280 10 612 14 l602 6 0 -128 c0 -71 -2
-131 -5 -134 -3 -3 -249 44 -547 103 -299 60 -547 109 -552 109 -52 0 88 -32
552 -125 l547 -110 3 -107 c1 -60 0 -108 -3 -108 -3 0 -25 9 -48 21 -23 12
-36 15 -29 8 6 -7 12 -17 12 -21 0 -4 -538 -8 -1195 -8 -657 0 -1195 4 -1195
8 0 4 6 14 13 21 6 7 -7 4 -29 -7 -23 -12 -44 -18 -48 -15 -8 8 -8 478 0 486
10 9 1244 -3 1275 -13z"/>
<path d="M6160 4310 c0 -5 5 -10 10 -10 6 0 10 5 10 10 0 6 -4 10 -10 10 -5 0
-10 -4 -10 -10z"/>
<path d="M6160 4270 c0 -5 5 -10 10 -10 6 0 10 5 10 10 0 6 -4 10 -10 10 -5 0
-10 -4 -10 -10z"/>
<path d="M4020 4080 c0 -5 5 -10 10 -10 6 0 10 5 10 10 0 6 -4 10 -10 10 -5 0
-10 -4 -10 -10z"/>
<path d="M4020 4040 c0 -5 5 -10 10 -10 6 0 10 5 10 10 0 6 -4 10 -10 10 -5 0
-10 -4 -10 -10z"/>
<path d="M4020 4000 c0 -5 5 -10 10 -10 6 0 10 5 10 10 0 6 -4 10 -10 10 -5 0
-10 -4 -10 -10z"/>
<path d="M6160 3860 c0 -5 5 -10 10 -10 6 0 10 5 10 10 0 6 -4 10 -10 10 -5 0
-10 -4 -10 -10z"/>
<path d="M6160 3820 c0 -5 5 -10 10 -10 6 0 10 5 10 10 0 6 -4 10 -10 10 -5 0
-10 -4 -10 -10z"/>
<path d="M6160 3780 c0 -5 5 -10 10 -10 6 0 10 5 10 10 0 6 -4 10 -10 10 -5 0
-10 -4 -10 -10z"/>
<path d="M6160 3740 c0 -5 5 -10 10 -10 6 0 10 5 10 10 0 6 -4 10 -10 10 -5 0
-10 -4 -10 -10z"/>
<path d="M7228 3724 c-12 -11 -10 -154 2 -154 6 0 10 11 10 25 0 14 4 25 9 25
5 0 16 -11 25 -25 9 -14 21 -25 27 -25 6 0 1 13 -10 29 -25 35 -26 39 -4 63 9
10 11 18 5 18 -6 0 -20 -12 -31 -26 l-20 -25 -3 51 c-2 29 -6 48 -10 44z"/>
<path d="M6880 3645 c0 -74 0 -75 26 -75 39 0 64 18 64 45 0 14 -5 25 -12 25
-9 0 -9 3 0 12 30 30 -2 68 -59 68 -17 0 -19 -8 -19 -75z m70 36 c0 -19 -18
-31 -46 -31 -8 0 -14 10 -14 25 0 21 5 25 30 25 23 0 30 -5 30 -19z m8 -63 c2
-12 -6 -21 -23 -28 -33 -13 -45 -6 -45 26 0 22 4 25 32 22 22 -2 34 -9 36 -20z"/>
<path d="M7964 3698 c-17 -19 -17 -21 -1 -15 15 6 17 -1 17 -53 0 -33 4 -60
10 -60 6 0 10 32 10 75 0 41 -4 75 -8 75 -5 0 -17 -10 -28 -22z"/>
<path d="M8118 3715 c-3 -3 -3 -26 0 -50 4 -43 4 -45 -22 -45 l-27 0 21 31
c12 16 20 32 17 35 -3 3 -17 -12 -31 -33 l-26 -38 35 -3 c27 -2 35 -8 35 -23
0 -10 5 -19 10 -19 6 0 10 9 10 19 0 11 6 22 13 24 10 4 10 6 0 6 -9 1 -13 18
-13 51 0 45 -7 60 -22 45z"/>
<path d="M8189 3704 c-10 -13 -10 -19 0 -36 9 -15 10 -23 2 -31 -6 -6 -11 -21
-11 -34 0 -26 43 -42 69 -26 22 14 26 52 7 59 -14 5 -14 8 0 29 13 20 13 24
-1 39 -21 20 -49 21 -66 0z m59 -23 c-2 -9 -11 -17 -21 -19 -21 -4 -35 27 -17
38 19 12 42 0 38 -19z m-14 -47 c21 -8 20 -40 -1 -48 -9 -4 -23 0 -31 8 -13
12 -13 18 -2 30 14 18 13 18 34 10z"/>
<path d="M7015 3671 c-3 -6 7 -9 21 -8 40 3 41 -21 2 -31 -26 -6 -33 -13 -33
-33 0 -21 5 -24 43 -25 42 -2 42 -2 42 33 0 19 -5 43 -10 54 -11 20 -54 26
-65 10z m55 -55 c0 -18 -27 -39 -40 -31 -16 10 -12 33 8 38 29 8 32 7 32 -7z"/>
<path d="M7132 3668 c-7 -7 -12 -26 -12 -43 0 -17 5 -36 12 -43 14 -14 58 -16
58 -2 0 5 -6 7 -14 4 -15 -6 -46 21 -46 40 0 19 23 44 45 49 16 4 15 5 -5 6
-15 0 -31 -4 -38 -11z"/>
<path d="M7337 3673 c-16 -16 -5 -41 23 -53 25 -10 28 -15 18 -27 -6 -8 -20
-12 -30 -10 -10 3 -18 1 -18 -5 0 -5 15 -8 33 -6 46 4 50 41 7 63 -34 18 -30
39 6 32 13 -2 24 0 24 4 0 10 -54 12 -63 2z"/>
<path d="M7430 3597 c0 -49 4 -76 10 -72 6 3 10 16 10 28 0 18 6 23 27 22 33
0 54 35 44 73 -7 24 -13 27 -49 27 l-42 1 0 -79z m68 61 c28 -28 3 -85 -32
-72 -16 6 -23 64 -9 77 10 11 28 8 41 -5z"/>
<path d="M7565 3671 c-3 -6 7 -9 21 -8 40 3 41 -21 2 -31 -26 -6 -33 -13 -33
-33 0 -21 5 -24 43 -25 42 -2 42 -2 42 33 0 19 -5 43 -10 54 -11 20 -54 26
-65 10z m55 -55 c0 -18 -27 -39 -40 -31 -16 10 -12 33 8 38 29 8 32 7 32 -7z"/>
<path d="M7682 3668 c-7 -7 -12 -26 -12 -43 0 -17 5 -36 12 -43 14 -14 58 -16
58 -2 0 5 -6 7 -14 4 -15 -6 -46 21 -46 40 0 19 23 44 45 49 16 4 15 5 -5 6
-15 0 -31 -4 -38 -11z"/>
<path d="M7782 3668 c-20 -20 -15 -76 7 -88 24 -12 61 -13 61 -1 0 5 -8 7 -19
4 -10 -2 -26 4 -36 14 -18 17 -17 18 23 21 44 3 49 10 32 43 -12 21 -50 25
-68 7z m56 -15 c2 -8 -6 -13 -22 -13 -25 0 -33 10 -19 24 10 10 36 3 41 -11z"/>
<path d="M8361 3621 c1 -53 2 -54 8 -16 8 48 17 65 36 65 15 0 21 -18 28 -75
3 -23 4 -21 6 11 2 81 56 81 64 1 3 -31 4 -27 3 13 l-1 55 -72 1 -73 1 1 -56z"/>
<path d="M8551 3621 c1 -53 2 -54 8 -16 8 48 17 65 36 65 15 0 21 -18 28 -75
3 -23 4 -21 6 11 2 81 56 81 64 1 3 -31 4 -27 3 13 l-1 55 -72 1 -73 1 1 -56z"/>
<path d="M4020 3630 c0 -5 5 -10 10 -10 6 0 10 5 10 10 0 6 -4 10 -10 10 -5 0
-10 -4 -10 -10z"/>
<path d="M5488 3554 c-12 -11 -10 -154 2 -154 6 0 10 17 10 39 0 79 55 77 63
-2 3 -31 4 -27 3 13 -1 54 -1 55 -31 55 -25 0 -31 5 -35 28 -3 16 -8 25 -12
21z"/>
<path d="M4640 3475 c0 -43 4 -75 10 -75 6 0 10 14 10 30 0 19 5 30 14 30 8 0
23 -13 33 -30 23 -40 38 -39 17 1 -11 23 -13 34 -5 42 21 21 13 57 -15 67 -58
23 -64 17 -64 -65z m73 43 c7 -23 -4 -38 -29 -38 -19 0 -24 5 -24 25 0 20 5
25 24 25 13 0 26 -6 29 -12z"/>
<path d="M5408 3518 c-2 -5 -1 -33 2 -61 4 -46 8 -52 30 -55 l25 -3 -22 16
c-30 21 -32 72 -4 83 19 7 19 8 -4 18 -15 7 -25 8 -27 2z"/>
<path d="M4773 3455 c0 -33 2 -45 4 -27 2 18 2 45 0 60 -2 15 -4 0 -4 -33z"/>
<path d="M4820 3453 c0 -66 18 -70 22 -5 3 39 6 47 23 47 17 0 21 -9 26 -50 3
-27 7 -38 7 -23 6 89 53 106 63 23 l6 -50 -1 55 -1 55 -72 0 -73 1 0 -53z"/>
<path d="M6160 3370 c0 -5 5 -10 10 -10 6 0 10 5 10 10 0 6 -4 10 -10 10 -5 0
-10 -4 -10 -10z"/>
<path d="M7224 3352 c-22 -14 -29 -42 -26 -96 5 -69 22 -74 22 -7 0 39 4 51
18 54 16 4 16 5 0 6 -22 1 -24 31 -3 31 8 0 15 5 15 10 0 12 -11 13 -26 2z"/>
<path d="M7294 3352 c-22 -14 -29 -42 -26 -96 5 -69 22 -74 22 -7 0 39 4 51
18 54 16 4 16 5 0 6 -22 1 -24 31 -3 31 8 0 15 5 15 10 0 12 -11 13 -26 2z"/>
<path d="M7051 3324 c-27 -34 -27 -78 -1 -104 43 -43 110 -10 110 55 0 69 -69
100 -109 49z m90 -21 c21 -56 -26 -108 -70 -77 -14 10 -21 26 -21 48 0 39 15
56 52 56 22 0 31 -6 39 -27z"/>
<path d="M7738 3345 c-3 -3 -3 -26 0 -50 4 -43 4 -45 -22 -45 l-27 0 21 31
c12 16 20 32 17 35 -3 3 -17 -12 -31 -33 l-26 -38 35 -3 c27 -2 35 -8 35 -23
0 -10 5 -19 10 -19 6 0 10 9 10 19 0 11 6 22 13 24 10 4 10 6 0 6 -9 1 -13 18
-13 51 0 45 -7 60 -22 45z"/>
<path d="M7810 3331 c-5 -11 -10 -36 -10 -56 0 -67 37 -97 74 -59 23 22 21 96
-2 117 -25 22 -49 21 -62 -2z m55 -12 c12 -19 7 -81 -8 -96 -30 -30 -61 39
-41 91 7 18 39 21 49 5z"/>
<path d="M6160 3330 c0 -5 5 -10 10 -10 6 0 10 5 10 10 0 6 -4 10 -10 10 -5 0
-10 -4 -10 -10z"/>
<path d="M7552 3314 c-7 -8 -8 -14 -3 -14 5 0 11 -21 13 -47 2 -39 7 -48 23
-51 18 -2 18 -2 3 8 -12 8 -18 24 -18 50 0 31 4 40 18 41 13 0 14 2 2 6 -8 3
-17 9 -20 13 -3 4 -11 2 -18 -6z"/>
<path d="M4744 3288 c-17 -19 -17 -21 -1 -15 15 6 17 -1 17 -53 0 -33 4 -60
10 -60 6 0 10 32 10 75 0 41 -4 75 -8 75 -5 0 -17 -10 -28 -22z"/>
<path d="M4856 3297 c-12 -9 -17 -23 -14 -42 3 -26 8 -30 36 -33 20 -2 32 -9
32 -18 0 -8 -15 -21 -32 -29 -28 -12 -29 -14 -10 -15 35 0 62 34 62 79 0 60
-35 87 -74 58z m58 -23 c8 -20 -11 -44 -34 -44 -18 0 -30 25 -23 48 7 18 50
15 57 -4z"/>
<path d="M4984 3288 c-17 -19 -17 -21 -1 -15 15 6 17 -1 17 -53 0 -33 4 -60
10 -60 6 0 10 32 10 75 0 41 -4 75 -8 75 -5 0 -17 -10 -28 -22z"/>
<path d="M7337 3303 c-15 -14 -6 -33 24 -48 36 -19 33 -41 -5 -38 -14 1 -26
-2 -26 -8 0 -15 56 -10 70 6 15 18 1 40 -31 50 -30 10 -24 38 6 33 14 -3 25
-1 25 3 0 10 -54 12 -63 2z"/>
<path d="M7443 3284 c-15 -24 -15 -29 -2 -53 16 -28 55 -40 73 -21 8 9 6 11
-12 5 -23 -7 -52 8 -52 26 0 5 16 9 35 9 27 0 35 4 35 18 0 45 -51 56 -77 16z
m57 1 c11 -13 8 -15 -18 -15 -24 0 -30 4 -26 15 4 8 12 15 19 15 7 0 18 -7 25
-15z"/>
<path d="M7981 3251 c1 -53 2 -54 8 -16 8 48 17 65 36 65 15 0 21 -18 28 -75
3 -23 4 -21 6 11 2 81 56 81 64 1 3 -31 4 -27 3 13 l-1 55 -72 1 -73 1 1 -56z"/>
<path d="M8170 3253 c0 -66 18 -70 22 -5 3 39 6 47 23 47 17 0 21 -9 26 -50 3
-27 7 -38 7 -23 6 89 53 106 63 23 l6 -50 -1 55 -1 55 -72 0 -73 1 0 -53z"/>
<path d="M6160 3290 c0 -5 5 -10 10 -10 6 0 10 5 10 10 0 6 -4 10 -10 10 -5 0
-10 -4 -10 -10z"/>
<path d="M5141 3211 c1 -53 2 -54 8 -16 8 48 17 65 36 65 15 0 21 -18 28 -75
3 -23 4 -21 6 11 2 81 56 81 64 1 3 -31 4 -27 3 13 l-1 55 -72 1 -73 1 1 -56z"/>
<path d="M5330 3213 c0 -66 18 -70 22 -5 3 39 6 47 23 47 17 0 21 -9 26 -50 3
-27 7 -38 7 -23 6 89 53 106 63 23 l6 -50 -1 55 -1 55 -72 0 -73 1 0 -53z"/>
<path d="M4020 3180 c0 -5 5 -10 10 -10 6 0 10 5 10 10 0 6 -4 10 -10 10 -5 0
-10 -4 -10 -10z"/>
<path d="M4020 3140 c0 -5 5 -10 10 -10 6 0 10 5 10 10 0 6 -4 10 -10 10 -5 0
-10 -4 -10 -10z"/>
<path d="M4020 3100 c0 -5 5 -10 10 -10 6 0 10 5 10 10 0 6 -4 10 -10 10 -5 0
-10 -4 -10 -10z"/>
<path d="M6099 3077 c12 -16 -21 -17 -488 -17 -327 0 -501 -3 -501 -10 0 -7
174 -10 501 -10 445 0 500 -2 489 -15 -16 -19 -11 -19 41 4 l43 20 -27 10
c-16 6 -38 16 -50 23 -20 10 -21 10 -8 -5z"/>
<path d="M6160 2920 c0 -5 5 -10 10 -10 6 0 10 5 10 10 0 6 -4 10 -10 10 -5 0
-10 -4 -10 -10z"/>
<path d="M6160 2880 c0 -5 5 -10 10 -10 6 0 10 5 10 10 0 6 -4 10 -10 10 -5 0
-10 -4 -10 -10z"/>
<path d="M6160 2840 c0 -5 5 -10 10 -10 6 0 10 5 10 10 0 6 -4 10 -10 10 -5 0
-10 -4 -10 -10z"/>
<path d="M7740 2182 c0 -26 -3 -29 -27 -24 -30 6 -53 -18 -53 -54 0 -33 26
-54 65 -52 l35 1 0 73 c0 40 -4 76 -10 79 -6 4 -10 -6 -10 -23z m-2 -68 c4
-38 -20 -63 -43 -44 -18 15 -20 51 -3 68 21 21 43 9 46 -24z"/>
<path d="M8193 2130 c0 -47 2 -66 4 -42 2 23 2 61 0 85 -2 23 -4 4 -4 -43z"/>
<path d="M8247 2203 c-11 -11 -8 -153 3 -153 6 0 10 33 10 80 0 80 -1 86 -13
73z"/>
<path d="M8350 2131 c0 -47 4 -81 10 -81 6 0 10 20 10 45 0 32 5 47 16 52 22
8 37 -10 45 -59 7 -42 7 -41 6 12 l-2 55 -32 0 c-27 0 -33 4 -33 22 0 12 -4
25 -10 28 -6 4 -10 -23 -10 -74z"/>
<path d="M8768 2204 c-12 -11 -10 -154 2 -154 6 0 10 17 10 39 0 79 55 77 63
-2 3 -31 4 -27 3 13 -1 54 -1 55 -31 55 -25 0 -31 5 -35 28 -3 16 -8 25 -12
21z"/>
<path d="M7513 2193 c-27 -10 -14 -53 22 -74 19 -12 35 -24 35 -29 0 -18 -29
-31 -56 -24 -19 5 -25 4 -20 -5 8 -12 45 -15 70 -5 30 11 19 53 -19 76 -42 24
-41 42 3 46 18 2 30 8 27 13 -6 9 -41 11 -62 2z"/>
<path d="M8888 2168 c-2 -5 -1 -33 2 -61 4 -46 8 -52 30 -55 l25 -3 -22 16
c-30 21 -32 72 -4 83 19 7 19 8 -4 18 -15 7 -25 8 -27 2z"/>
<path d="M7623 2105 c0 -33 2 -45 4 -27 2 18 2 45 0 60 -2 15 -4 0 -4 -33z"/>
<path d="M7800 2141 c-14 -28 -12 -57 6 -75 18 -18 60 -21 70 -5 4 8 -1 9 -15
4 -22 -7 -51 9 -51 26 0 5 16 9 35 9 27 0 35 4 35 18 0 41 -60 59 -80 23z m58
-8 c2 -8 -6 -13 -22 -13 -25 0 -33 10 -19 24 10 10 36 3 41 -11z"/>
<path d="M7906 2133 c17 -67 21 -77 32 -81 7 -2 12 2 12 10 1 7 7 27 14 43
l13 30 12 -42 c6 -24 16 -43 21 -43 5 0 16 23 25 52 18 61 17 58 6 58 -5 0
-12 -16 -15 -35 -9 -44 -20 -45 -32 -3 -13 44 -32 46 -40 4 -9 -51 -21 -53
-29 -6 -4 22 -11 40 -16 40 -5 0 -6 -12 -3 -27z"/>
<path d="M8080 2152 c0 -6 9 -8 21 -5 12 4 25 0 30 -8 6 -10 0 -17 -24 -25
-24 -8 -32 -17 -32 -35 0 -21 5 -24 38 -24 l38 -1 -3 51 c-3 48 -4 50 -35 53
-18 2 -33 -1 -33 -6z m49 -73 c-11 -22 -40 -22 -47 -1 -4 12 37 33 51 25 4 -2
2 -13 -4 -24z"/>
<path d="M8483 2134 c-15 -24 -15 -29 -2 -53 16 -28 55 -40 73 -21 8 9 6 11
-12 5 -23 -7 -52 8 -52 26 0 5 16 9 35 9 27 0 35 4 35 18 0 45 -51 56 -77 16z
m57 1 c11 -13 8 -15 -18 -15 -24 0 -30 4 -26 15 4 8 12 15 19 15 7 0 18 -7 25
-15z"/>
<path d="M8603 2105 c0 -33 2 -45 4 -27 2 18 2 45 0 60 -2 15 -4 0 -4 -33z"/>
<path d="M8650 2146 c-8 -10 -8 -21 -2 -32 10 -18 5 -51 -10 -70 -10 -14 16
-44 38 -44 53 0 75 55 27 66 -48 10 -49 12 -15 24 23 9 32 18 32 35 0 13 6 26
13 28 6 3 -7 6 -29 6 -25 1 -46 -5 -54 -13z m53 -10 c8 -20 -20 -43 -35 -28
-14 14 -3 42 16 42 7 0 16 -6 19 -14z m15 -98 c-7 -20 -68 -23 -68 -4 0 12 10
16 36 16 24 0 34 -4 32 -12z"/>
<path d="M7854 1938 c-17 -19 -17 -21 -1 -15 15 6 17 -1 17 -53 0 -33 4 -60
10 -60 6 0 10 32 10 75 0 41 -4 75 -8 75 -5 0 -17 -10 -28 -22z"/>
<path d="M7960 1941 c-5 -11 -10 -36 -10 -56 0 -67 37 -97 74 -59 23 22 21 96
-2 117 -25 22 -49 21 -62 -2z m55 -12 c12 -19 7 -81 -8 -96 -30 -30 -61 39
-41 91 7 18 39 21 49 5z"/>
<path d="M8097 1946 c-21 -16 -22 -27 -2 -20 12 5 15 -5 15 -55 0 -34 4 -61
10 -61 12 0 14 136 2 144 -4 2 -15 -1 -25 -8z"/>
<path d="M8251 1861 c1 -53 2 -54 8 -16 8 48 17 65 36 65 15 0 21 -18 28 -75
3 -23 4 -21 6 11 2 81 56 81 64 1 3 -31 4 -27 3 13 l-1 55 -72 1 -73 1 1 -56z"/>
<path d="M8441 1861 c1 -53 2 -54 8 -16 8 48 17 65 36 65 15 0 21 -18 28 -75
3 -23 4 -21 6 11 2 81 56 81 64 1 3 -31 4 -27 3 13 l-1 55 -72 1 -73 1 1 -56z"/>
<path d="M7022 1123 c0 -43 3 -63 5 -45 3 25 9 32 27 32 37 0 60 23 53 52 -7
25 -30 38 -69 38 -16 0 -18 -10 -16 -77z m66 30 c2 -14 -3 -23 -17 -28 -28 -9
-41 1 -41 31 0 22 4 25 28 22 19 -2 28 -9 30 -25z"/>
<path d="M7490 1190 c0 -5 5 -10 10 -10 6 0 10 5 10 10 0 6 -4 10 -10 10 -5 0
-10 -4 -10 -10z"/>
<path d="M7418 1168 c-2 -5 -1 -33 2 -61 4 -46 8 -52 30 -55 l25 -3 -22 16
c-30 21 -32 72 -4 83 19 7 19 8 -4 18 -15 7 -25 8 -27 2z"/>
<path d="M7152 1148 c-7 -7 -12 -26 -12 -43 0 -36 15 -55 45 -55 30 0 45 19
45 55 0 36 -15 55 -45 55 -12 0 -26 -5 -33 -12z m58 -18 c21 -39 -15 -85 -46
-59 -27 22 -11 79 23 79 7 0 17 -9 23 -20z"/>
<path d="M7264 1145 c-8 -19 3 -34 33 -46 31 -12 24 -34 -10 -34 -15 1 -27 -3
-27 -8 0 -4 15 -7 33 -5 46 4 50 41 7 63 -34 18 -30 39 6 32 13 -2 24 0 24 4
0 15 -60 10 -66 -6z"/>
<path d="M7373 1105 c0 -33 2 -45 4 -27 2 18 2 45 0 60 -2 15 -4 0 -4 -33z"/>
<path d="M7490 1105 c0 -30 5 -55 10 -55 6 0 10 25 10 55 0 30 -4 55 -10 55
-5 0 -10 -25 -10 -55z"/>
<path d="M7551 1108 c11 -29 23 -55 25 -57 7 -7 20 12 32 44 5 17 13 38 17 48
4 9 3 17 -2 17 -6 0 -16 -18 -23 -40 -7 -22 -16 -40 -20 -40 -4 0 -12 18 -19
40 -6 22 -16 40 -21 40 -5 0 0 -24 11 -52z"/>
<path d="M7662 1148 c-7 -7 -12 -26 -12 -43 0 -17 5 -36 12 -43 14 -14 68 -16
68 -3 0 5 -9 7 -20 4 -20 -5 -50 12 -50 28 0 5 15 9 34 9 41 0 47 7 35 38 -9
24 -47 30 -67 10z m52 -13 c4 -11 -2 -15 -26 -15 -26 0 -29 2 -18 15 7 8 18
15 25 15 7 0 15 -7 19 -15z"/>
<path d="M7432 895 l-2 -80 32 -2 c41 -3 58 12 58 52 0 39 -21 59 -54 53 -22
-4 -25 -1 -29 26 -2 17 -5 -5 -5 -49z m69 -9 c13 -28 -3 -66 -27 -66 -23 0
-38 43 -25 69 15 28 39 27 52 -3z"/>
<path d="M7887 963 c-4 -3 -7 -16 -7 -28 0 -18 -5 -21 -22 -18 -33 5 -49 -9
-50 -45 -1 -43 17 -62 58 -59 l34 2 0 78 c0 77 -1 83 -13 70z m-9 -94 c2 -27
-1 -38 -14 -43 -35 -13 -60 44 -32 72 22 22 43 9 46 -29z"/>
<path d="M7014 905 c-8 -19 3 -34 33 -46 31 -12 24 -34 -10 -34 -15 1 -27 -3
-27 -8 0 -4 15 -7 33 -5 46 4 50 41 7 63 -34 18 -30 39 6 32 13 -2 24 0 24 4
0 15 -60 10 -66 -6z"/>
<path d="M7119 896 c-17 -36 -4 -74 27 -82 15 -4 30 -2 37 6 10 10 8 12 -7 6
-26 -9 -46 11 -46 45 0 23 6 30 33 38 l32 9 -33 1 c-25 1 -35 -4 -43 -23z"/>
<path d="M7222 860 l1 -55 6 45 c5 34 12 48 31 57 25 13 25 13 -7 11 l-33 -2
2 -56z"/>
<path d="M7301 879 c-1 -54 12 -69 57 -66 32 2 32 3 32 55 0 28 -4 52 -10 52
-5 0 -10 -20 -10 -44 0 -32 -5 -46 -17 -50 -23 -9 -35 7 -44 56 l-6 43 -2 -46z"/>
<path d="M7610 863 c0 -29 5 -53 10 -53 6 0 10 20 10 43 0 36 4 46 23 55 20
10 20 10 -10 9 -33 -2 -33 -2 -33 -54z"/>
<path d="M7700 913 c0 -5 12 -9 27 -8 39 0 40 -23 1 -33 -26 -6 -33 -13 -33
-33 0 -21 4 -24 38 -24 l38 -1 -3 51 c-3 48 -4 50 -35 53 -18 2 -33 -1 -33 -5z
m47 -80 c-16 -16 -18 -16 -34 0 -16 15 -15 17 8 26 32 12 49 -4 26 -26z"/>
<path d="M7943 865 c0 -33 2 -45 4 -27 2 18 2 45 0 60 -2 15 -4 0 -4 -33z"/>
<path d="M7990 876 c0 -51 14 -66 58 -63 32 2 32 2 31 57 l-2 55 -7 -43 c-12
-76 -60 -80 -60 -6 0 24 -4 44 -10 44 -5 0 -10 -20 -10 -44z"/>
<path d="M8121 906 c-13 -15 -9 -21 33 -50 26 -18 11 -40 -21 -31 -16 4 -22 2
-18 -5 3 -5 15 -10 25 -10 56 0 70 44 20 62 -37 12 -34 31 6 39 l29 7 -31 1
c-17 0 -37 -5 -43 -13z"/>
<path d="M5527 843 c-4 -3 -7 -16 -7 -28 0 -18 -5 -21 -22 -18 -33 5 -49 -9
-50 -45 -1 -43 17 -62 58 -59 l34 2 0 78 c0 77 -1 83 -13 70z m-9 -94 c2 -27
-1 -38 -14 -43 -35 -13 -60 44 -32 72 22 22 43 9 46 -29z"/>
<path d="M5650 771 c0 -47 4 -81 10 -81 6 0 10 20 10 45 0 32 5 47 16 52 22 8
37 -10 45 -59 7 -42 7 -41 6 12 l-2 55 -32 0 c-27 0 -33 4 -33 22 0 12 -4 25
-10 28 -6 4 -10 -23 -10 -74z"/>
<path d="M4476 824 c-9 -8 -16 -19 -16 -24 0 -13 28 -38 50 -45 23 -7 27 -40
6 -48 -8 -3 -24 -3 -35 0 -12 3 -21 1 -21 -6 0 -16 66 -13 80 4 18 21 8 46
-25 65 -16 9 -31 24 -33 33 -3 13 4 17 33 17 22 0 34 4 30 10 -9 15 -52 12
-69 -6z"/>
<path d="M4804 809 c-8 -14 -7 -70 2 -101 3 -10 15 -18 27 -18 20 1 20 2 5 11
-12 7 -18 22 -18 49 0 31 4 40 18 41 13 0 14 2 2 6 -8 3 -18 10 -21 16 -4 5
-10 4 -15 -4z"/>
<path d="M5572 804 c-7 -8 -8 -14 -3 -14 5 0 11 -21 13 -47 2 -39 7 -48 23
-51 18 -2 18 -2 3 8 -12 8 -18 24 -18 50 0 31 4 40 18 41 13 0 14 2 2 6 -8 3
-17 9 -20 13 -3 4 -11 2 -18 -6z"/>
<path d="M4592 788 c-20 -20 -15 -76 7 -88 24 -12 61 -13 61 -1 0 5 -8 7 -19
4 -10 -2 -26 4 -36 14 -18 17 -17 18 23 21 44 3 49 10 32 43 -12 21 -50 25
-68 7z m56 -15 c2 -8 -6 -13 -22 -13 -25 0 -33 10 -19 24 10 10 36 3 41 -11z"/>
<path d="M4712 788 c-7 -7 -12 -26 -12 -43 0 -17 5 -36 12 -43 15 -15 58 -16
58 -1 0 5 -4 7 -10 4 -17 -11 -50 15 -50 39 0 28 24 51 45 42 8 -3 15 -1 15 4
0 14 -44 12 -58 -2z"/>
<path d="M4883 745 c0 -33 2 -45 4 -27 2 18 2 45 0 60 -2 15 -4 0 -4 -33z"/>
<path d="M4944 792 c-36 -23 -16 -102 26 -102 41 0 68 68 38 98 -13 13 -47 16
-64 4z m54 -43 c2 -27 -1 -38 -14 -43 -35 -13 -60 44 -32 72 22 22 43 9 46
-29z"/>
<path d="M5050 744 c0 -30 5 -54 10 -54 6 0 10 20 10 44 0 78 55 71 63 -7 3
-31 4 -27 3 13 l-1 55 -42 1 -43 2 0 -54z"/>
<path d="M5223 786 c3 -8 11 -33 17 -55 14 -52 26 -52 41 -1 14 46 24 44 33
-6 4 -19 12 -34 18 -32 10 4 37 78 38 102 0 19 -15 -7 -26 -42 l-11 -37 -13
43 c-16 51 -31 50 -46 -3 -11 -42 -18 -39 -29 13 -3 17 -11 32 -17 32 -6 0 -8
-6 -5 -14z"/>
<path d="M5403 745 c0 -33 2 -45 4 -27 2 18 2 45 0 60 -2 15 -4 0 -4 -33z"/>
<path d="M4731 581 c-11 -7 -6 -10 20 -13 47 -4 48 -28 5 -76 -20 -22 -36 -42
-36 -46 0 -3 20 -6 45 -6 25 0 45 5 45 10 0 6 -14 10 -32 10 l-31 0 20 23 c19
21 43 60 43 71 0 2 -7 12 -16 20 -17 18 -42 20 -63 7z"/>
<path d="M4851 581 c-11 -7 -6 -10 20 -13 47 -4 48 -28 5 -76 -20 -22 -36 -42
-36 -46 0 -3 20 -6 45 -6 25 0 45 5 45 10 0 6 -14 10 -32 10 l-31 0 20 23 c19
21 43 60 43 71 0 2 -7 12 -16 20 -17 18 -42 20 -63 7z"/>
<path d="M4970 549 c0 -24 4 -38 10 -34 15 9 47 -3 54 -20 8 -23 -23 -47 -51
-40 -16 4 -22 2 -18 -5 17 -27 85 -1 85 33 0 29 -18 47 -47 47 -16 0 -23 6
-23 20 0 16 7 20 30 20 17 0 30 5 30 10 0 6 -16 10 -35 10 -34 0 -35 -1 -35
-41z"/>
<path d="M5141 491 c1 -53 2 -54 8 -16 8 48 17 65 36 65 15 0 21 -18 28 -75 3
-23 4 -21 6 11 2 81 56 81 64 1 3 -31 4 -27 3 13 l-1 55 -72 1 -73 1 1 -56z"/>
<path d="M5330 493 c0 -66 18 -70 22 -5 3 39 6 47 23 47 17 0 21 -9 26 -50 3
-27 7 -38 7 -23 6 89 53 106 63 23 l6 -50 -1 55 -1 55 -72 0 -73 1 0 -53z"/>
</g>
</svg>
